<svg id="Layer_1" data-name="Layer 1" xmlns="http://www.w3.org/2000/svg" viewBox="0 0 248 291"><defs><style>.cls-1,.cls-3{fill:#ffbffb;}.cls-1,.cls-4,.cls-7{fill-rule:evenodd;}.cls-2,.cls-5,.cls-6,.cls-8{fill:none;stroke-linecap:round;stroke-width:0.57px;}.cls-2,.cls-5{stroke:#000;}.cls-2,.cls-6{stroke-linejoin:round;}.cls-5,.cls-8{stroke-miterlimit:22.93;}.cls-6{stroke:#fefefe;}.cls-7{fill:#fefefe;}.cls-8{stroke:#373435;}</style></defs><title>Chubbs_9 by growwwkit</title><path class="cls-1" d="M155.2,196.6l-19.9-6.67a.66.66,0,0,0-.81.4l-5.41,13.12,31.83,10.67c2.49-5.42-1.06-8.5-5.11-12.54C154.38,199.55,155.2,196.6,155.2,196.6Z"/><path class="cls-2" d="M155.2,196.6l-19.9-6.67a.66.66,0,0,0-.81.4l-5.41,13.12,31.83,10.67c2.49-5.42-1.06-8.5-5.11-12.54C154.38,199.55,155.2,196.6,155.2,196.6Z"/><rect class="cls-3" x="142.68" y="190.99" width="4.31" height="35.27" rx="0.64" ry="0.64" transform="matrix(0.32, -0.95, 0.95, 0.32, -99, 279.63)"/><rect class="cls-2" x="142.68" y="190.99" width="4.31" height="35.27" rx="0.64" ry="0.64" transform="matrix(0.32, -0.95, 0.95, 0.32, -99, 279.63)"/><path class="cls-4" d="M155.32,196.79l-.14,1.81a147.86,147.86,0,0,0-15.38-6.95Z"/><path class="cls-5" d="M155.32,196.79l-.14,1.81a147.86,147.86,0,0,0-15.38-6.95Z"/><circle cx="141.01" cy="226.07" r="15.54" transform="matrix(0.05, -1, 1, 0.05, -91.96, 355.38)"/><circle class="cls-2" cx="141.01" cy="226.07" r="15.54" transform="matrix(0.05, -1, 1, 0.05, -91.96, 355.38)"/><line class="cls-6" x1="144.33" y1="239.81" x2="137.97" y2="212.27"/><path class="cls-6" d="M133.18,237.28c4.77-5.64,1.39-16.05-3.77-19.1"/><path class="cls-6" d="M153.27,232.64c-6.77-3-8.3-13.81-5-18.82"/><line class="cls-6" x1="126.83" y1="228.73" x2="154.87" y2="222.25"/><path class="cls-1" d="M136.27,93.45c5.44,5.52,9.43,11.89,19,18.52,3.08,2.12,5.08,3.79,5.72,4.07,0,0-.09-13.34-.09-13.77,0-1.07-3.41-2.3-4.68-7.09-.51-2,1.26-3.72,3.41-5.61a2.22,2.22,0,0,1,1.74-.57c.32,0,0-2.87.22-5.18.16-1.7.61-3.25,1.85-3.21,1.74.06,1.74,1.57,1.82,4,.06,2,.09,4.62.13,4.68a1.7,1.7,0,0,1,1.92-.19,3,3,0,0,1,1.28,1.33,5.79,5.79,0,0,1,1.32.27c2.25,1,2.34,4.19,1.94,12.08-.47,9,1,19.34-.52,23.24-3.53,9.08-14,3.48-28.66-7.65-5.12-3.87-8-15.52-6.53-21.75C136.23,96.34,136.27,93.45,136.27,93.45Z"/><path class="cls-5" d="M136.27,93.45c5.44,5.52,9.43,11.89,19,18.52,3.08,2.12,5.08,3.79,5.72,4.07,0,0-.09-13.34-.09-13.77,0-1.07-3.41-2.3-4.68-7.09-.51-2,1.26-3.72,3.41-5.61a2.22,2.22,0,0,1,1.74-.57c.32,0,0-2.87.22-5.18.16-1.7.61-3.25,1.85-3.21,1.74.06,1.74,1.57,1.82,4,.06,2,.09,4.62.13,4.68a1.7,1.7,0,0,1,1.92-.19,3,3,0,0,1,1.28,1.33,5.79,5.79,0,0,1,1.32.27c2.25,1,2.34,4.19,1.94,12.08-.47,9,1,19.34-.52,23.24-3.53,9.08-14,3.48-28.66-7.65-5.12-3.87-8-15.52-6.53-21.75C136.23,96.34,136.27,93.45,136.27,93.45Z"/><path class="cls-4" d="M161,115.34c0,.45,0,4.18,0,5.29a11.28,11.28,0,0,0-1.18-4.68s-.7-1.24-.53-1.1a9.41,9.41,0,0,0,1.55.85C160.88,115.64,161,115.35,161,115.34Z"/><path class="cls-2" d="M161,115.34c0,.45,0,4.18,0,5.29a11.28,11.28,0,0,0-1.18-4.68s-.7-1.24-.53-1.1a9.41,9.41,0,0,0,1.55.85C160.88,115.64,161,115.35,161,115.34Z"/><path class="cls-4" d="M136.26,94.07l3.37,3.16c2,9.28,5,14.71,6.56,23.81-2-1.67-3.44-3-5.45-4.71Z"/><path class="cls-5" d="M136.26,94.07l3.37,3.16c2,9.28,5,14.71,6.56,23.81-2-1.67-3.44-3-5.45-4.71Z"/><path class="cls-1" d="M121.15,224.55h-21a.66.66,0,0,0-.64.64l-1,14.15h33.58c.63-5.92-3.72-7.72-8.84-10.26C121.31,227.6,121.15,224.55,121.15,224.55Z"/><path class="cls-2" d="M121.15,224.55h-21a.66.66,0,0,0-.64.64l-1,14.15h33.58c.63-5.92-3.72-7.72-8.84-10.26C121.31,227.6,121.15,224.55,121.15,224.55Z"/><rect class="cls-3" x="97.51" y="237.08" width="35.27" height="4.31" rx="0.64" ry="0.64"/><rect class="cls-2" x="97.51" y="237.08" width="35.27" height="4.31" rx="0.64" ry="0.64"/><path class="cls-1" d="M135.92,63.93c0,8.55,0,8.41,0,17,0,22.6,10.28,27.37,10.93,50.62.12,4.26-3.69,3.73-4.34,9.44-4.8,1.16-17.64-3.53-22.44-2.36-4.79-1.17-17.43,8.33-22.22,7.16-8.41-36.93,9.34-44.12,9.31-63.36l0-18.46C107.13,45,135.89,45.63,135.92,63.93Z"/><path class="cls-2" d="M135.92,63.93c0,8.55,0,8.41,0,17,0,22.6,10.28,27.37,10.93,50.62.12,4.26-3.69,3.73-4.34,9.44-4.8,1.16-17.64-3.53-22.44-2.36-4.79-1.17-17.43,8.33-22.22,7.16-8.41-36.93,9.34-44.12,9.31-63.36l0-18.46C107.13,45,135.89,45.63,135.92,63.93Z"/><path class="cls-1" d="M135.92,63.93c0,8.55,0,8.41,0,17a64,64,0,0,0,.42,7.52H106.59a30.35,30.35,0,0,0,.59-6l0-18.46C107.13,45,135.89,45.63,135.92,63.93Z"/><path class="cls-2" d="M135.92,63.93c0,8.55,0,8.41,0,17a64,64,0,0,0,.42,7.52H106.59a30.35,30.35,0,0,0,.59-6l0-18.46C107.13,45,135.89,45.63,135.92,63.93Z"/><path class="cls-1" d="M107.22,62.41c1.43-16.87,27.1-16.32,28.62,0Z"/><path class="cls-2" d="M107.22,62.41c1.43-16.87,27.1-16.32,28.62,0Z"/><path class="cls-1" d="M95.9,130.9c0,.2,0,.41,0,.62-.19,9.67,2.94,15,2.91,23.82,0,19.16-.58,68.39-.52,69.39H121c.33,0,.33-68.06.33-68.69,0-1,18.15,14.34,18,16.14,0,.32-4.91,17.75-4.91,17.75,1.9,1.07,20.19,6.73,21.28,7.09,0,0,4.58-14.71,6.06-20.61,1.43-5.69,2.91-7.62-.55-13.38-3.12-5.2-12.09-16.43-14.12-19.91-.65-1.11-.38-9.16-.17-11.5a4.3,4.3,0,0,0,0-.72Z"/><path class="cls-2" d="M95.9,130.9c0,.2,0,.41,0,.62-.19,9.67,2.94,15,2.91,23.82,0,19.16-.58,68.39-.52,69.39H121c.33,0,.33-68.06.33-68.69,0-1,18.15,14.34,18,16.14,0,.32-4.91,17.75-4.91,17.75,1.9,1.07,20.19,6.73,21.28,7.09,0,0,4.58-14.71,6.06-20.61,1.43-5.69,2.91-7.62-.55-13.38-3.12-5.2-12.09-16.43-14.12-19.91-.65-1.11-.38-9.16-.17-11.5a4.3,4.3,0,0,0,0-.72Z"/><path class="cls-7" d="M134.64,73.89a1.67,1.67,0,1,1,1.67-1.67A1.67,1.67,0,0,1,134.64,73.89Z"/><path class="cls-2" d="M134.64,73.89a1.67,1.67,0,1,1,1.67-1.67A1.67,1.67,0,0,1,134.64,73.89Z"/><path class="cls-7" d="M120.62,70.55a1.67,1.67,0,1,1-1.68,1.67A1.67,1.67,0,0,1,120.62,70.55Z"/><path class="cls-2" d="M120.62,70.55a1.67,1.67,0,1,1-1.68,1.67A1.67,1.67,0,0,1,120.62,70.55Z"/><path class="cls-2" d="M121.34,156c0-4.08,6.72-3.7,9.17-9.51"/><path class="cls-5" d="M133.81,68a3.27,3.27,0,0,1,1.91-.43"/><path class="cls-5" d="M122.45,67.78a4.7,4.7,0,0,0-2.54-.86"/><path class="cls-1" d="M107.43,85.81h28.5a2,2,0,0,1,0,4h-28.5a2,2,0,1,1,0-4Z"/><path class="cls-5" d="M107.43,85.81h28.5a2,2,0,0,1,0,4h-28.5a2,2,0,1,1,0-4Z"/><line class="cls-5" x1="91.95" y1="62.25" x2="135.8" y2="62.25"/><path class="cls-4" d="M136.32,89.77l.44,1.76A148.24,148.24,0,0,0,120,89.83Z"/><path class="cls-5" d="M136.32,89.77l.44,1.76A148.24,148.24,0,0,0,120,89.83Z"/><path class="cls-4" d="M121.05,224.69l.43,1.77a143.33,143.33,0,0,0-16.78-1.71Z"/><path class="cls-5" d="M121.05,224.69l.43,1.77a143.33,143.33,0,0,0-16.78-1.71Z"/><path class="cls-4" d="M135.27,62.32l.43,1.77a142.3,142.3,0,0,0-16.79-1.7Z"/><path class="cls-5" d="M135.27,62.32l.43,1.77a142.3,142.3,0,0,0-16.79-1.7Z"/><path class="cls-4" d="M135.64,71.36a.18.18,0,0,1,.19.19.19.19,0,0,1-.19.19.2.2,0,0,1-.19-.19A.19.19,0,0,1,135.64,71.36Z"/><path class="cls-2" d="M135.64,71.36a.18.18,0,0,1,.19.19.19.19,0,0,1-.19.19.2.2,0,0,1-.19-.19A.19.19,0,0,1,135.64,71.36Z"/><path class="cls-4" d="M119.82,73.16a.18.18,0,0,1-.19-.19.19.19,0,0,1,.19-.19A.2.2,0,0,1,120,73,.19.19,0,0,1,119.82,73.16Z"/><path class="cls-2" d="M119.82,73.16a.18.18,0,0,1-.19-.19.19.19,0,0,1,.19-.19A.2.2,0,0,1,120,73,.19.19,0,0,1,119.82,73.16Z"/><line class="cls-5" x1="121.37" y1="224.73" x2="121.37" y2="155.92"/><path class="cls-8" d="M126.42,79.14a2.81,2.81,0,0,0,4.81.07"/><path class="cls-2" d="M164.93,89.86c-.72,1.1-1.79,2-1.29,4.43.42,2,1.16,3,2,3.06a1.53,1.53,0,0,0,1.62-1.24c.37-1.24-.35-3.18.23-3.86,0,0,.14-.22.19-.3"/><path class="cls-2" d="M167.39,95.25a2,2,0,0,0,1.29,2.22c.6.21,1.75.18,1.86-.64s.06-2.42.11-3.1"/><path class="cls-2" d="M163.94,95.43A5.21,5.21,0,0,0,161,94.14a6.26,6.26,0,0,0,1.8-2.88c.18-1.11-.29-2.24-1.6-2.24h-.08"/><circle cx="163.25" cy="64.92" r="15.54"/><circle class="cls-2" cx="163.25" cy="64.92" r="15.54"/><line class="cls-2" x1="179.88" y1="58.46" x2="192.88" y2="58.46"/><line class="cls-2" x1="180.35" y1="60.69" x2="187.47" y2="60.69"/><line class="cls-6" x1="163.39" y1="78.79" x2="163.39" y2="51.05"/><path class="cls-6" d="M153.28,73.9c5.81-4.34,4.88-15,.62-19.09"/><path class="cls-6" d="M173.52,73.9c-5.81-4.34-4.88-15-.62-19.09"/><line class="cls-6" x1="149.1" y1="64.33" x2="177.35" y2="64.33"/><path class="cls-4" d="M61.15,175a15.54,15.54,0,1,1-2.78,21.81A15.54,15.54,0,0,1,61.15,175Z"/><path class="cls-2" d="M61.15,175a15.54,15.54,0,1,1-2.78,21.81A15.54,15.54,0,0,1,61.15,175Z"/><line class="cls-6" x1="79.46" y1="198.44" x2="62.1" y2="176.02"/><path class="cls-6" d="M68.23,200.82c2-7.14-5.46-15.21-11.45-15.82"/><path class="cls-6" d="M84.59,188.15c-7.41.13-13.35-9.1-12.45-15"/><line class="cls-6" x1="58.86" y1="195.7" x2="81.69" y2="178.02"/><path class="cls-1" d="M101.6,98.46C95,109.23,77.87,136.8,76.19,138.19c-.5.42-5.66.29-11.28,1.13-2.14.32-2.09,2-2.52,2.06-1.85.24-2.79,1.21-2.64,2.46a2,2,0,0,0,1.19,1.38,2.14,2.14,0,0,0,1.85,2.48c2.46.37,3.76-.42,4.43-.19.19,2.22,2,2.39,4.51,2.37,1.73,0,4.48-.15,5.76-.1,7.33.31,8.81-6.37,18.75-20.4C97.71,128,111.18,107,112.76,104c4.12-7.77-5.94-14-11.16-5.51"/><path class="cls-8" d="M106.7,94.52a8,8,0,0,0-5.1,3.94C95,109.23,77.87,136.8,76.19,138.19c-.5.42-5.66.29-11.28,1.13-2.14.32-2.09,2-2.52,2.06-1.85.24-2.79,1.21-2.64,2.46a2,2,0,0,0,1.19,1.38,2.14,2.14,0,0,0,1.85,2.48c2.46.37,3.76-.42,4.43-.19.19,2.22,2,2.39,4.51,2.37,1.73,0,4.48-.15,5.76-.1,7.33.31,8.81-6.37,18.75-20.4C97.71,128,111.18,107,112.76,104"/><path class="cls-8" d="M61.86,141.47a90.27,90.27,0,0,1,10.75-1.13"/><path class="cls-8" d="M60.94,145.49c.26-2,6.26-2.2,10.89-2.49"/><path class="cls-8" d="M67.36,148.24a1.6,1.6,0,0,1,.91-1.92c1.63-.84,5.26-.33,6.77-.75a5.76,5.76,0,0,0,1.36-.32"/><path class="cls-8" d="M158.07,220.71c3.73,1.51,7.8,4.53,9.19,6.47"/><path class="cls-8" d="M157.86,223s3.37,1.44,4.59,3"/><line class="cls-8" x1="75.48" y1="155.33" x2="75.48" y2="170.83"/><line class="cls-8" x1="73.1" y1="162.9" x2="73.1" y2="169.77"/></svg>