<svg id="Layer_1" data-name="Layer 1" xmlns="http://www.w3.org/2000/svg" viewBox="0 0 248 291"><defs><style>.cls-1,.cls-4,.cls-7{fill:none;stroke-linecap:round;stroke-width:0.57px;}.cls-1,.cls-4{stroke:#000;}.cls-1,.cls-7{stroke-miterlimit:22.93;}.cls-2,.cls-3{fill:#ffbffb;}.cls-3,.cls-5,.cls-6{fill-rule:evenodd;}.cls-4{stroke-linejoin:round;}.cls-6{fill:#fff;}.cls-7{stroke:#373435;}</style></defs><title>Chubbs_7 by growwwkit</title><rect x="95.62" y="69.03" width="70" height="78.5" transform="matrix(0.99, -0.1, 0.1, 0.99, -10.32, 13.82)"/><rect class="cls-1" x="95.62" y="69.03" width="70" height="78.5" transform="matrix(0.99, -0.1, 0.1, 0.99, -10.32, 13.82)"/><rect class="cls-2" x="132.29" y="67.16" width="33.23" height="78.5" transform="translate(-10.03 15.66) rotate(-5.83)"/><rect class="cls-1" x="132.29" y="67.16" width="33.23" height="78.5" transform="translate(-10.03 15.66) rotate(-5.83)"/><path class="cls-3" d="M101.35,226.28h-21a.67.67,0,0,0-.64.64l-1,14.16h33.57c.63-5.93-3.71-7.72-8.83-10.27C101.5,229.34,101.35,226.28,101.35,226.28Z"/><path class="cls-4" d="M101.35,226.28h-21a.67.67,0,0,0-.64.64l-1,14.16h33.57c.63-5.93-3.71-7.72-8.83-10.27C101.5,229.34,101.35,226.28,101.35,226.28Z"/><rect class="cls-2" x="77.71" y="238.82" width="35.26" height="4.31" rx="0.64" ry="0.64"/><rect class="cls-4" x="77.71" y="238.82" width="35.26" height="4.31" rx="0.64" ry="0.64"/><path class="cls-5" d="M101.77,226.58l.43,1.77a142.3,142.3,0,0,0-16.79-1.7Z"/><path class="cls-1" d="M101.77,226.58l.43,1.77a142.3,142.3,0,0,0-16.79-1.7Z"/><path class="cls-3" d="M123,226.28H102a.67.67,0,0,0-.64.64l-1,14.16H134c.63-5.93-3.72-7.72-8.84-10.27C123.17,229.34,123,226.28,123,226.28Z"/><path class="cls-4" d="M123,226.28H102a.67.67,0,0,0-.64.64l-1,14.16H134c.63-5.93-3.72-7.72-8.84-10.27C123.17,229.34,123,226.28,123,226.28Z"/><rect class="cls-2" x="99.37" y="238.82" width="35.26" height="4.31" rx="0.64" ry="0.64"/><rect class="cls-4" x="99.37" y="238.82" width="35.26" height="4.31" rx="0.64" ry="0.64"/><path class="cls-5" d="M122.73,226.58l.43,1.77a142.3,142.3,0,0,0-16.79-1.7Z"/><path class="cls-1" d="M122.73,226.58l.43,1.77a142.3,142.3,0,0,0-16.79-1.7Z"/><path class="cls-3" d="M105.9,60.37c.88,8.5.87,8.36,1.75,16.87,2,21,17.79,26.18,19.42,57,.23,4.25-6.7-3.7-6.77,2-4.65,1.65-17.91-1.72-22.57-.07-4.88-.68-15.72,10.08-20.6,9.4-1.85-5.48-3.83-8.7-4.18-13.09C71,108,78.37,98.38,79.23,88.22a34.44,34.44,0,0,0,0-6.57l-1.9-18.36C75.34,44.44,104,42.17,105.9,60.37Z"/><path class="cls-4" d="M105.9,60.37c.88,8.5.87,8.36,1.75,16.87,2,21,17.79,26.18,19.42,57,.23,4.25-6.7-3.7-6.77,2-4.65,1.65-17.91-1.72-22.57-.07-4.88-.68-15.72,10.08-20.6,9.4-1.85-5.48-3.83-8.7-4.18-13.09C71,108,78.37,98.38,79.23,88.22a34.44,34.44,0,0,0,0-6.57l-1.9-18.36C75.34,44.44,104,42.17,105.9,60.37Z"/><path class="cls-3" d="M127,131.5c0,.21,0,.41,0,.62.18,9.67-2.09,15-2.07,23.83.37,4.14,4.59,25.77,3.88,33.45-1.08,11.59-4.17,36.29-4.21,36.88.79.25-44.95.64-44.74.24,0,0,4.45-34.47,4.27-36.87-.53-7.16-3-17.77-4.12-25.78-.53-3.88.07-4.08-2.73-7.22-3.08-3.47-7.1-10.86-4-22.36C73.48,133.93,121.42,131.81,127,131.5Z"/><path class="cls-4" d="M127,131.5c0,.21,0,.41,0,.62.18,9.67-2.09,15-2.07,23.83.37,4.14,4.59,25.77,3.88,33.45-1.08,11.59-4.17,36.29-4.21,36.88.79.25-44.95.64-44.74.24,0,0,4.45-34.47,4.27-36.87-.53-7.16-3-17.77-4.12-25.78-.53-3.88.07-4.08-2.73-7.22-3.08-3.47-7.1-10.86-4-22.36C73.48,133.93,121.42,131.81,127,131.5Z"/><path class="cls-6" d="M105.79,70.39a1.67,1.67,0,1,1,1.49-1.83A1.66,1.66,0,0,1,105.79,70.39Z"/><path class="cls-4" d="M105.79,70.39a1.67,1.67,0,1,1,1.49-1.83A1.66,1.66,0,0,1,105.79,70.39Z"/><path class="cls-4" d="M101.46,159.62c-.35-2.35-5.13-2.5-8.8-6.54a17.63,17.63,0,0,1-4-10.9"/><path class="cls-1" d="M104.49,62.9a3.41,3.41,0,0,1,1.67-1"/><path class="cls-3" d="M79.78,85l28.35-2.89a2,2,0,0,1,.41,4L80.19,89.06a2,2,0,1,1-.41-4Z"/><path class="cls-1" d="M79.78,85l28.35-2.89a2,2,0,0,1,.41,4L80.19,89.06a2,2,0,1,1-.41-4Z"/><line class="cls-1" x1="77.12" y1="61.63" x2="120.73" y2="57.18"/><path class="cls-5" d="M108.93,86l.61,1.72a142.9,142.9,0,0,0-16.87,0Z"/><path class="cls-1" d="M108.93,86l.61,1.72a142.9,142.9,0,0,0-16.87,0Z"/><path class="cls-5" d="M105.28,58.69l.61,1.71a147.35,147.35,0,0,0-16.87,0Z"/><path class="cls-1" d="M105.28,58.69l.61,1.71a147.35,147.35,0,0,0-16.87,0Z"/><path class="cls-5" d="M106.65,68.8a.19.19,0,0,1,.21.17.2.2,0,0,1-.17.21.19.19,0,0,1-.21-.17A.19.19,0,0,1,106.65,68.8Z"/><path class="cls-4" d="M106.65,68.8a.19.19,0,0,1,.21.17.2.2,0,0,1-.17.21.19.19,0,0,1-.21-.17A.19.19,0,0,1,106.65,68.8Z"/><path class="cls-3" d="M151.61,148.63c-.77,3.07-3.91,1.68-5.46,1.47a5.5,5.5,0,0,1-2.64.32c-3.38-.85-.88-1.38-6.11-6.19-8.72-8-20.57-19.67-25.49-29a55.52,55.52,0,0,0-4.29-7.54c-2.89-4-9.73-14.51,3.4-9.06,4.27,1.77,2.62-1.36,5.53,2.77,7.89,10,16.79,22.87,26.65,31.52,3.89,3.41,4.42,2.7,10,5.09,1.74.73,2.51,3.52,1,4.11-.66.26-3.76-2.11-4.61-1.91-1.55.36,2.06,3.41,1,3-.77-.3-.61,4.45,1,5.41"/><path class="cls-4" d="M148.82,146.35c1.47,1.16,3.82,1.3,2.36,3-2.16,2.44-6-.15-7.48-1.56-.92-.87-2.43.12-3.82-1.18-5-5.13-22.8-18.2-32.67-39.47"/><path class="cls-4" d="M149.65,147c-1.56-1-5-4.33-3.52-4.79.6-.23,3.76.75,4.53,1.05,1.22.46,3.56,2.29,4.6,2,.42-.12.71-3.17-.37-4.78-1.65-2.44-6.37-3.38-6.87-3.56-1.7-.6-3.35-2.68-4.82-4-9.86-8.65-19.31-22-26.08-31.52"/><path class="cls-3" d="M145.83,143.48c1.46,2.2,6.59,5.78,9,5.15a2.32,2.32,0,0,0,2.17-3.08c-.12-.6-.49.26-3.2-1.28a23.49,23.49,0,0,1-5.71-4.44c-1.18-1.4-4-.75-2.8,2.57A4.08,4.08,0,0,0,145.83,143.48Z"/><path class="cls-1" d="M145.83,143.48c1.46,2.2,6.59,5.78,9,5.15a2.32,2.32,0,0,0,2.17-3.08c-.12-.6-.49.26-3.2-1.28a23.49,23.49,0,0,1-5.71-4.44c-1.18-1.4-4-.75-2.8,2.57A4.08,4.08,0,0,0,145.83,143.48Z"/><path class="cls-1" d="M137.8,144.61c.45.23,1,1.75,2.59,3.67s4.89,3.4,5.63,1.27"/><path class="cls-3" d="M142.19,138.62a4.52,4.52,0,0,1,5.62-.2,3,3,0,0,1,.32,4.75,4.51,4.51,0,0,1-5.62.19,3,3,0,0,1-.32-4.74"/><path class="cls-3" d="M138.08,143c.81-1.06,7.77,2,5.92,4s1.18,2.1.62,2.63-2.44-.29-3.31-.95-4-4.64-3.23-5.71"/><path class="cls-5" d="M107.21,107.11c.3.75,1.27,2.12,1.64,3.2a39.08,39.08,0,0,0,2.21,4.44s4.54,6.71,8.74,11.93A87.81,87.81,0,0,0,127,134.6s.17,2.37-.17,2.27c-3.67-1.11-17.77-23.65-19.38-28.05-.17-.46-.32-1-.51-1.56Z"/><polyline class="cls-1" points="101.45 226.65 105.95 190.65 101.45 159.24"/><path class="cls-7" d="M104.08,77c-.07-.49.8-1.16,1.64-.43.4.34,1.33.42,1.58-.13.07-.14.27-.46.25-.14"/><path class="cls-7" d="M100.4,63.39c-.62.82-2.06,3.87-.12,3.38.8-.21.44-2.48.19-3.13A.66.66,0,0,1,100.4,63.39Z"/><path class="cls-5" d="M142.55,77.07l7.95-.9a2.31,2.31,0,1,1,.52,4.59l-8,.9a2.31,2.31,0,0,1-.52-4.59Z"/><path class="cls-1" d="M142.55,77.07l7.95-.9a2.31,2.31,0,1,1,.52,4.59l-8,.9a2.31,2.31,0,0,1-.52-4.59Z"/><path class="cls-1" d="M157.92,59.51c3.86.72,10.21,3.71,12.12,5.38"/><path class="cls-1" d="M160.16,62.31a21.1,21.1,0,0,1,4.8,2.07"/><path class="cls-1" d="M170.4,146.45a13,13,0,0,0,2.54-5.27"/><path class="cls-1" d="M170.21,150.61c1.74-1.82,5-7.15,5.54-9.69"/></svg>