<svg id="Layer_1" data-name="Layer 1" xmlns="http://www.w3.org/2000/svg" viewBox="0 0 248 291"><defs><style>.cls-1,.cls-3{fill:#233239;}.cls-1,.cls-4,.cls-7{fill-rule:evenodd;}.cls-2,.cls-5,.cls-6,.cls-8{fill:white;stroke-linecap:round;stroke-width:0.57px;}.cls-2,.cls-5{stroke:#000;}.cls-2{stroke-linejoin:round;}.cls-5,.cls-6,.cls-8{stroke-miterlimit:22.93;}.cls-6{stroke:#373435;}.cls-7{fill:#fff;}.cls-8{stroke:#fff;}</style></defs><title>Chubbs_1 by growwwkit</title><path class="cls-1" d="M99.18,170.77l9.34-60.68c-14.32,18-23.27,68.47-25.15,79.06-.79,5.79-.82,9.74.25,12.83,1.22,3.52,3,4.52,4.35,4.24.93,1,3.62,1.23,4.3-.23.33-.7,2.06-.06,2.35-2.41.42-3.42-3-3.47-4.23-6.87-.46-1.24,1-.49,1.86-1.26,1.12-1,.43.89,1,2,1.1,2,1.5,3.72,4.27,2.89,2.26-.68.3-8,.19-9.9-.14-2.49-.32-3.76-.32-6.45,0-3.91.51-5.77.95-9.45.15-1.26.8-2.45.8-3.75"/><path class="cls-2" d="M92.3,205.67c2.71.26,3.32-3.15,1.28-4.84-2.64-2.19-2.8-3.35-3.11-5"/><path class="cls-2" d="M89,196.16a14.87,14.87,0,0,0,.85,6.25c1.12,3.34-3.73,6.88-6.27-.43-1.07-3.09-1-7-.25-12.83,1.88-10.59,10.83-61.09,25.15-79.06"/><path class="cls-2" d="M89,197.31c-.49-1.89,1-1.64,2.09-1.67,1-.17,1.8-.81,1.83-.49.32,3.49,1.32,4.41,2.27,4.9,2.33,1.22,3.72-1.16,3.32-2.85A43,43,0,0,1,97.44,181c1.57-14.81,7.43-32.19,11.4-46.5"/><path class="cls-2" d="M91.11,195.64c1.77-.43,3.45-.89,4.1-5"/><path class="cls-2" d="M88,206.22c3.32,2.69,5.61-1,3.83-3.47-2-2.78-2.37-4.28-2.34-6.95"/><path class="cls-1" d="M121.79,242.49h-21a.66.66,0,0,0-.64.64l-1,14.16h33.57c.63-5.93-3.71-7.73-8.83-10.27C122,245.55,121.79,242.49,121.79,242.49Z"/><path class="cls-2" d="M121.79,242.49h-21a.66.66,0,0,0-.64.64l-1,14.16h33.57c.63-5.93-3.71-7.73-8.83-10.27C122,245.55,121.79,242.49,121.79,242.49Z"/><rect class="cls-3" x="98.15" y="255.02" width="35.26" height="4.31" rx="0.64" ry="0.64"/><rect class="cls-2" x="98.15" y="255.02" width="35.26" height="4.31" rx="0.64" ry="0.64"/><path class="cls-4" d="M122.21,242.79l.44,1.76a148.24,148.24,0,0,0-16.79-1.7Z"/><path class="cls-5" d="M122.21,242.79l.44,1.76a148.24,148.24,0,0,0-16.79-1.7Z"/><path class="cls-1" d="M143.46,242.49h-21a.66.66,0,0,0-.64.64l-1,14.16h33.57c.63-5.93-3.71-7.73-8.83-10.27C143.61,245.55,143.46,242.49,143.46,242.49Z"/><path class="cls-2" d="M143.46,242.49h-21a.66.66,0,0,0-.64.64l-1,14.16h33.57c.63-5.93-3.71-7.73-8.83-10.27C143.61,245.55,143.46,242.49,143.46,242.49Z"/><path class="cls-4" d="M95.42,148a29.71,29.71,0,0,1-1.26,5.49C90,165.81,98.54,174,98.61,172.93c.17-2.57,2.25-8.89,2.48-12.53.43-6.54.57-14.21.8-20.91.21-6.18-1-9.44-1-15.06a13.61,13.61,0,0,0-2.1,4.34C96.72,135.63,96.21,141.13,95.42,148Z"/><path class="cls-6" d="M95.42,148a29.71,29.71,0,0,1-1.26,5.49C90,165.81,98.54,174,98.61,172.93c.17-2.57,2.25-8.89,2.48-12.53.43-6.54.57-14.21.8-20.91.21-6.18-1-9.44-1-15.06a13.61,13.61,0,0,0-2.1,4.34C96.72,135.63,96.21,141.13,95.42,148Z"/><rect class="cls-3" x="119.82" y="255.02" width="35.27" height="4.31" rx="0.64" ry="0.64"/><rect class="cls-2" x="119.82" y="255.02" width="35.27" height="4.31" rx="0.64" ry="0.64"/><path class="cls-4" d="M143.17,242.79l.44,1.76a148.24,148.24,0,0,0-16.79-1.7Z"/><path class="cls-5" d="M143.17,242.79l.44,1.76a148.24,148.24,0,0,0-16.79-1.7Z"/><path class="cls-1" d="M136.46,81.87c0,8.55,0,8.41,0,17-.15,21.1,12.37,21.53,10.92,50.63-.21,4.24-3.68,3.72-4.33,9.43-4.8,1.17-17.65-3.53-22.45-2.36-4.78-1.17-16.66,8.43-21.45,7.26-1.28-5.64-2.85-9-2.82-13.44.2-27,11.39-33.72,11.37-50l0-18.46C107.67,62.92,136.44,63.57,136.46,81.87Z"/><path class="cls-2" d="M136.46,81.87c0,8.55,0,8.41,0,17-.15,21.1,12.37,21.53,10.92,50.63-.21,4.24-3.68,3.72-4.33,9.43-4.8,1.17-17.65-3.53-22.45-2.36-4.78-1.17-16.66,8.43-21.45,7.26-1.28-5.64-2.85-9-2.82-13.44.2-27,11.39-33.72,11.37-50l0-18.46C107.67,62.92,136.44,63.57,136.46,81.87Z"/><path class="cls-1" d="M147.47,148.84c0,.21,0,.41,0,.62.19,9.67-2.94,15-2.91,23.83.06,19.15.58,68.21.52,69.2.79.25-44.95.64-44.75.23,0,0-.43-48.36-.16-67.14.25-4.43-5.87-6.73-5.54-17.57.08-2.4.75-4.79,1.75-8.44a3.6,3.6,0,0,0,0-.73Z"/><path class="cls-2" d="M147.47,148.84c0,.21,0,.41,0,.62.19,9.67-2.94,15-2.91,23.83.06,19.15.58,68.21.52,69.2.79.25-44.95.64-44.75.23,0,0-.43-48.36-.16-67.14.25-4.43-5.87-6.73-5.54-17.57.08-2.4.75-4.79,1.75-8.44a3.6,3.6,0,0,0,0-.73Z"/><path class="cls-7" d="M135.34,91.83A1.67,1.67,0,1,1,137,90.16,1.67,1.67,0,0,1,135.34,91.83Z"/><path class="cls-2" d="M135.34,91.83A1.67,1.67,0,1,1,137,90.16,1.67,1.67,0,0,1,135.34,91.83Z"/><path class="cls-2" d="M121.9,174c0-2.39-4.72-3.23-7.76-7.76a17.59,17.59,0,0,1-2.41-11.36"/><path class="cls-5" d="M134.8,84.24a3.48,3.48,0,0,1,1.77-.84"/><path class="cls-1" d="M108,103.76h28.5a2,2,0,1,1,0,4H108a2,2,0,0,1,0-4Z"/><path class="cls-5" d="M108,103.76h28.5a2,2,0,1,1,0,4H108a2,2,0,0,1,0-4Z"/><line class="cls-5" x1="107.7" y1="80.21" x2="151.54" y2="80.21"/><path class="cls-4" d="M136.87,107.71l.43,1.77a143.33,143.33,0,0,0-16.78-1.71Z"/><path class="cls-5" d="M136.87,107.71l.43,1.77a143.33,143.33,0,0,0-16.78-1.71Z"/><path class="cls-4" d="M136,80.14l.43,1.77a143.36,143.36,0,0,0-16.79-1.71Z"/><path class="cls-5" d="M136,80.14l.43,1.77a143.36,143.36,0,0,0-16.79-1.71Z"/><path class="cls-5" d="M136.53,98a2.52,2.52,0,0,1-1.32-2.22"/><path class="cls-4" d="M136.46,88.94a.19.19,0,0,1,.19.19.18.18,0,0,1-.19.19.19.19,0,0,1-.19-.19A.2.2,0,0,1,136.46,88.94Z"/><path class="cls-2" d="M136.46,88.94a.19.19,0,0,1,.19.19.18.18,0,0,1-.19.19.19.19,0,0,1-.19-.19A.2.2,0,0,1,136.46,88.94Z"/><path class="cls-1" d="M187.31,91.17c2.82,1.46.73,4.19.17,5.65,0,0,1.1,1.08.59,2.06-1.62,3.1-4.36,4.1-10.25,8.07-9.82,6.61-23.92,15.42-34.15,18a56.5,56.5,0,0,0-8.33,2.41c-4.55,1.89-16.38,6.09-8-5.41,2.71-3.73.2-6.69,4-4.73,11.58-5.35,26.15-11,36.86-18.59,4.22-3,3.65-3.66,7.28-8.58,1.12-1.52,4-1.62,4.24,0,.1.69-2.93,3.16-2.94,4,0,1.6,3.8-1.2,3.17-.29-.46.67,6.11-1.36,7.4-2.65"/><path class="cls-2" d="M182.54,96.34a13.81,13.81,0,0,0,3.76-4.41c.7-1.2,1.53-.81,2.07,0,.76,1.08.57,2.52-.89,4.92a17.08,17.08,0,0,1-4.77,4.82c-1.07.69-.46,2.39-2.05,3.44-6.15,3.68-23,17.94-46,22.59"/><path class="cls-2" d="M183.32,95.67C182,97,178,99.49,177.84,98c-.08-.63,1.61-3.48,2.07-4.15.74-1.08-.3-2.84-.34-3.92,0-.44-.76-1.55-2.55-.79-3.42,1.46-4.21,5.49-4.5,5.94-1,1.52-2.76,2.49-4.36,3.62-10.71,7.58-25.28,13.24-36.86,18.59"/><path class="cls-1" d="M179.32,98.63c2.49-.9,7.63-6.28,7.87-9.44.2-2.52-2.26-5.91-4-4-.95,1.06.43,3-.43,4.34a12.51,12.51,0,0,1-1.07,1.4A21.38,21.38,0,0,1,176,95.5c-1.63.82-1.39,3.81,2.12,3.38A4.11,4.11,0,0,0,179.32,98.63Z"/><path class="cls-5" d="M179.32,98.63c2.49-.9,7.63-6.28,7.87-9.44.2-2.52-2.26-5.91-4-4-.95,1.06.43,3-.43,4.34a12.51,12.51,0,0,1-1.07,1.4A21.38,21.38,0,0,1,176,95.5c-1.63.82-1.39,3.81,2.12,3.38A4.11,4.11,0,0,0,179.32,98.63Z"/><path class="cls-5" d="M178,106.65c.33-.38,4.21-1.27,7.39-4.21,1.76-1.64,4-4.4,2.07-5.62"/><path class="cls-1" d="M173.47,101a4.52,4.52,0,0,1,1.12-5.51,3,3,0,0,1,4.69.79,4.49,4.49,0,0,1-1.12,5.51,3,3,0,0,1-4.69-.79"/><path class="cls-1" d="M177.11,106.11c-.85-1,3.38-7.21,5-4.93s4.06-1.8,4.44-1.12-1.37,2.28-2.22,3-6.33,4.11-7.18,3.08"/><path class="cls-5" d="M177.55,94.48c-.63.45-1.21-.58-.51-1.36a4.44,4.44,0,0,1,2-1.46"/><polygon class="cls-1" points="180.4 92.55 177.98 94.3 190.6 62.98 191.47 63.37 180.4 92.55"/><polygon class="cls-5" points="180.4 92.55 177.98 94.3 190.6 62.98 191.47 63.37 180.4 92.55"/><path class="cls-4" d="M134.69,127.67c.8-.11,2.36-.74,3.49-.85A37.57,37.57,0,0,0,143,125.7s1.23-.42,1.23-.38c0,.26.78,2.6.72,2.59a10.35,10.35,0,0,0-1.8-.19c-2.23.07-4.46-.19-6.74.08-.48,0-1.08.07-1.63.14Z"/><line class="cls-5" x1="211.04" y1="61.81" x2="36.96" y2="61.81"/><line class="cls-5" x1="211.04" y1="51.76" x2="36.96" y2="51.76"/><line class="cls-5" x1="211.04" y1="41.71" x2="36.96" y2="41.71"/><line class="cls-5" x1="211.04" y1="31.66" x2="36.96" y2="31.66"/><rect x="165.85" y="62.94" width="8.1" height="8.1" rx="2.83" ry="2.83"/><rect class="cls-5" x="165.85" y="62.94" width="8.1" height="8.1" rx="2.83" ry="2.83"/><rect x="119.95" y="32.7" width="8.1" height="8.1" rx="2.83" ry="2.83"/><rect class="cls-5" x="119.95" y="32.7" width="8.1" height="8.1" rx="2.83" ry="2.83"/><rect x="109.3" y="42.66" width="8.1" height="8.1" rx="2.83" ry="2.83"/><rect class="cls-5" x="109.3" y="42.66" width="8.1" height="8.1" rx="2.83" ry="2.83"/><rect x="57.54" y="52.81" width="8.1" height="8.1" rx="2.83" ry="2.83"/><rect class="cls-5" x="57.54" y="52.81" width="8.1" height="8.1" rx="2.83" ry="2.83"/><rect x="186.9" y="42.7" width="8.1" height="8.1" rx="2.83" ry="2.83"/><rect class="cls-5" x="186.9" y="42.7" width="8.1" height="8.1" rx="2.83" ry="2.83"/><polyline class="cls-8" points="188.34 46.68 190.01 48.35 193.42 44.94"/><line class="cls-5" x1="181.94" y1="35.75" x2="185.24" y2="39.35"/><line class="cls-5" x1="194.22" y1="39.22" x2="196.29" y2="35"/><line class="cls-5" x1="199.54" y1="44.2" x2="203.89" y2="43.22"/><line class="cls-5" x1="182.98" y1="45.7" x2="178.55" y2="45.16"/><line class="cls-5" x1="183.37" y1="53.21" x2="179.61" y2="57.37"/><line class="cls-5" x1="196.49" y1="54.42" x2="198.67" y2="57.8"/><line class="cls-5" x1="190.78" y1="55.39" x2="190.69" y2="57.54"/><line class="cls-5" x1="121.9" y1="242.86" x2="121.9" y2="174.03"/></svg>